# xmcd
#
# Track frame offsets: 
#        150
#        15463
#        35649
#        54689
#        70578
#        95919
#        113207
#        133731
#        152909
#        171734
#        191684
#
# Disc length: 2810 seconds
#
# Revision: 0
# Processed by: cddbd v1.5.1PL2 Copyright (c) Steve Scherf et al.
# Submitted via: ExactAudioCopy v0.95b3
#
DISCID=a10af80b
DTITLE=Fat Pappy - Fat Pappy's Worm Farm
DYEAR=2002
DGENRE=Rock
TTITLE0=Getting Better
TTITLE1=Follow You
TTITLE2=My Name
TTITLE3=Tyrone
TTITLE4=I'd Rather
TTITLE5=What I Want
TTITLE6=Gruv
TTITLE7=Eleanor Rigby
TTITLE8=My World
TTITLE9=Scarecrow
TTITLE10=Where Will You Run
EXTD=
EXTT0=
EXTT1=
EXTT2=
EXTT3=
EXTT4=
EXTT5=
EXTT6=
EXTT7=
EXTT8=
EXTT9=
EXTT10=
PLAYORDER=
